<svg width="94" height="69" viewBox="0 0 94 69" fill="none" xmlns="http://www.w3.org/2000/svg"><g clip-path="url(#a)"><path d="M14.313 50.498c.974-.502 2.12-.567 3.2-.388.58.096 1.185.27 1.582.707.396.437.468 1.203.015 1.577-.27.223-.646.257-.996.253-.846-.01-1.785-.158-2.46.35-.387.291-.644.773-1.103.916-.46.144-.962-.126-1.2-.533a1.86 1.86 0 0 1-.136-1.375 2.096 2.096 0 0 1 1.098-1.507ZM12.082 46.195c.595.85 1.752.567 2.29.05.537-.517.762-1.272.969-1.988.47-1.639.947-3.348.595-5.022a2.777 2.777 0 0 0-.642-1.365 1.458 1.458 0 0 0-1.382-.462c-.584.155-.944.726-1.207 1.27a11.966 11.966 0 0 0-1.184 5.142c0 .827.094 1.696.557 2.38M10.447 47.413c.648-.768.77-1.886.482-2.847-.288-.962-.93-1.778-1.685-2.446a9.079 9.079 0 0 0-3.019-1.78 3.2 3.2 0 0 0-1.358-.23 1.424 1.424 0 0 0-1.14.688c-.318.606-.013 1.34.316 1.941a23.003 23.003 0 0 0 1.983 3.02c.595.765 1.276 1.52 2.182 1.86.906.338 1.847.306 2.336-.315" fill="#F44A24"/><path d="M12.043 59.017c.031-.126.05-.255.054-.385.026-.283.062-.634.102-1.055.052-.52.131-1.036.237-1.547.137-.622.324-1.232.558-1.825a6.76 6.76 0 0 1 .93-1.652c.315-.41.718-.744 1.179-.978.314-.153.65-.255.997-.301.13-.006.259-.024.385-.056a1.76 1.76 0 0 0-.39 0c-.36.027-.71.118-1.037.268-.484.229-.91.567-1.242.987a6.615 6.615 0 0 0-.966 1.686c-.24.602-.426 1.224-.558 1.86-.1.517-.169 1.04-.206 1.566a22.64 22.64 0 0 0-.052 1.062 1.71 1.71 0 0 0 .01.37Z" fill="#263238"/><path d="M12.116 58.207a.826.826 0 0 0 0-.186v-.514c0-.444 0-1.088.022-1.882.04-1.59.186-3.301.44-5.714.25-2.267.587-4.908.942-6.623.074-.39.152-.744.223-1.05.07-.304.128-.574.186-.79.058-.215.09-.372.121-.496a.743.743 0 0 0 .032-.186.664.664 0 0 0-.064.167l-.148.491c-.062.2-.134.476-.21.785-.077.309-.166.657-.25 1.045a58.744 58.744 0 0 0-.99 6.138c-.263 2.418-.382 4.619-.394 6.21 0 .799 0 1.444.028 1.889l.032.511c0 .07.01.138.03.205Z" fill="#263238"/><path d="M12.125 53.964a3.374 3.374 0 0 0 0-.536c-.03-.486-.085-.97-.164-1.45a19.046 19.046 0 0 0-.47-2.114 17.279 17.279 0 0 0-.89-2.494 13.325 13.325 0 0 0-2.603-4.042 6.83 6.83 0 0 0-.61-.567c-.095-.078-.177-.158-.263-.22l-.236-.163a3.348 3.348 0 0 0-.437-.296c-.026.033.638.426 1.477 1.317a14.055 14.055 0 0 1 2.528 4.027c.35.805.647 1.633.889 2.477.23.778.385 1.488.5 2.093.115.604.175 1.095.214 1.438.01.178.03.355.065.53ZM8.024 61.45l.424 5.827h7.486l.426-5.828H8.024ZM17.253 59.152H7.3v2.297h9.953v-2.297Z" fill="#263238"/><path d="M7.3 67.055v.636h9.789v-.636H7.3ZM8.226 68.813l-.46-1.122h8.966l-.536 1.122h-7.97Z" fill="#455A64"/><path d="M16.22 63.365a4.88 4.88 0 0 1-.147.2l-.434.56-.021.025-.019-.026-1.07-1.488h.06l-1.054 1.488-.034.047-.037-.043-1.25-1.488h.073a1.73 1.73 0 0 0-.069.086l-1.116 1.402-.037.047-.034-.049-1.056-1.488h.061c-.519.593-.961 1.096-1.302 1.488l-.022.026-.017-.03c-.173-.286-.309-.517-.407-.682-.043-.075-.078-.134-.104-.186a.264.264 0 0 1-.034-.065s.017.018.045.057l.115.175.428.672h-.041l1.278-1.5.033-.037.028.041 1.066 1.488h-.074l1.116-1.404.068-.086.038-.044.035.043 1.248 1.488h-.07l1.065-1.488.032-.043.03.043 1.049 1.499H15.6l.454-.542.121-.14c.029-.04.043-.054.045-.046Z" fill="#E0E0E0"/><path d="M16.464 61.41c0 .026-1.876.046-4.188.046s-4.19-.02-4.19-.046 1.874-.047 4.19-.047c2.315 0 4.188.02 4.188.047Z" fill="#455A64"/><path d="M16.842 67.754c0 .026-2.046.046-4.553.046-2.508 0-4.554-.02-4.554-.046s2.046-.047 4.554-.047c2.507 0 4.553.02 4.553.047Z" fill="#263238"/><path d="M68.037 44.23h17.396a2.814 2.814 0 0 1 2.814 2.815v21.877H65.228V47.045a2.814 2.814 0 0 1 2.809-2.815Z" fill="#455A64"/><path d="M86.31 44.355c.027 0 .048 5.497.048 12.277 0 6.78-.02 12.276-.049 12.276-.028 0-.048-5.497-.048-12.276 0-6.78.022-12.276.048-12.276ZM74.967 17.427a19.54 19.54 0 0 1 3.5 10.294c.109 2.473-.224 5.109.95 7.289 1.684 3.129 5.328 3.022 6.444 6.395.486 1.467-.409 4.694-.65 6.221-.274 1.734.786 3.19.513 4.926-.252 1.59-1.442 2.724-2.87 3.465-1.273.658-2.448.677-3.77.128-2.523-1.043-4.62-2.145-6.416-4.198-2.522-2.883-3.285-6.882-3.72-10.682a93.716 93.716 0 0 1 .571-25.25" fill="#263238"/><path d="M80.36 56.498a.665.665 0 0 1 .08-.02c.053-.013.135-.026.24-.058a4.093 4.093 0 0 0 2.02-1.27c.2-.234.352-.505.45-.798a4.38 4.38 0 0 0 .157-1.021 10.064 10.064 0 0 0-.241-2.37c-.162-.844-.372-1.744-.436-2.721-.03-.498.005-.999.107-1.488a9.53 9.53 0 0 1 .472-1.488c.203-.495.38-1 .532-1.512a3.86 3.86 0 0 0 .13-1.618 3.66 3.66 0 0 0-.604-1.503 6.9 6.9 0 0 0-1.055-1.194c-.768-.718-1.6-1.302-2.31-1.976a13.086 13.086 0 0 1-3.01-4.155 12.746 12.746 0 0 1-.692-1.86c-.089-.277-.14-.545-.204-.787-.063-.241-.091-.468-.132-.67-.058-.407-.103-.721-.114-.93 0-.104-.015-.185-.018-.245-.004-.06 0-.084 0-.084s0 .028.013.084c.013.056.016.14.03.244.016.214.066.528.13.93.043.2.089.424.14.668.05.243.118.504.211.78.187.632.421 1.247.701 1.842a13.146 13.146 0 0 0 3.008 4.118c.707.659 1.54 1.248 2.316 1.97.401.361.76.767 1.07 1.21.319.462.53.99.619 1.545.074.555.029 1.12-.132 1.657-.145.528-.348 1.028-.536 1.52a9.684 9.684 0 0 0-.473 1.469c-.1.482-.136.976-.106 1.467.05.964.266 1.86.426 2.71.172.785.249 1.586.231 2.389-.016.35-.072.7-.167 1.038a2.516 2.516 0 0 1-.467.812c-.328.381-.728.694-1.176.921-.279.148-.576.26-.883.335a2.163 2.163 0 0 1-.328.06Z" fill="#455A64"/><path d="m45.728 63.146 8.928-4.24s3.476-16.879 4.135-18.145c.658-1.267 3.404-2.363 3.404-2.363l-.46 22.856-.818 5.277-12.589 1.192-2.6-4.577Z" fill="#F44A24"/><path d="M38.112 67.144c-.05 0-.298.153-.092.545.207.393 1.721 1.69 2.165 1.237.445-.452-.234-1.002-.234-1.002l-1.84-.78Z" fill="#FFBE9D"/><path d="M40.014 67.94s1.827.23 2.528.498c.764.29 1.694.091 2.32-.33.354-.237.686-.508.989-.808l2.328-.037a2.79 2.79 0 0 0 .454-2.885 3.13 3.13 0 0 0-.532-.91c-.277-.3-.714-.54-1.469-.671l-2.766.597s-4.278-.307-5.048.054c0 0-.958.567-1.253.805-.112.091-.453 1.181.245 1.749 0 0-.606.481-.277.915l.156.186s-.407.528-.197.759c.21.23 2.046 1.302 2.699 1.049.653-.253.113-.865-.177-.977" fill="#FFBE9D"/><path d="M38.27 65.059c.077.022.152.05.226.081a11.797 11.797 0 0 0 1.051.343c.158.04.328.076.504.134.192.052.366.157.502.303a.616.616 0 0 1 .134.612.48.48 0 0 1-.225.243.875.875 0 0 1-.305.086c-.194.011-.39 0-.582-.032a5.213 5.213 0 0 1-.945-.245c-.262-.093-.469-.186-.612-.242a1.211 1.211 0 0 1-.217-.104c.077.02.154.046.228.076.145.052.356.132.618.218.303.103.614.179.93.228.184.03.372.038.558.026a.78.78 0 0 0 .277-.078.401.401 0 0 0 .186-.204.545.545 0 0 0-.108-.532 1.017 1.017 0 0 0-.467-.285c-.17-.057-.342-.095-.498-.14a8.906 8.906 0 0 1-.433-.135c-.265-.091-.471-.186-.612-.24a1.275 1.275 0 0 1-.21-.113Z" fill="#EB996E"/><path d="M38.433 63.738c.077.022.152.05.225.082.145.056.354.136.614.221.26.086.575.187.93.266.195.031.38.106.541.22a.452.452 0 0 1 .158.28c.017.111 0 .225-.046.326a.78.78 0 0 1-.478.406 1.257 1.257 0 0 1-.582.046 5.603 5.603 0 0 1-.93-.271l-.616-.216a1.71 1.71 0 0 1-.223-.088c.079.014.157.034.232.06l.623.186c.303.108.614.192.93.253.184.026.372.01.55-.048a.712.712 0 0 0 .432-.372.433.433 0 0 0-.09-.52 1.236 1.236 0 0 0-.51-.206 9.02 9.02 0 0 1-.93-.282c-.26-.097-.465-.187-.607-.246a1.5 1.5 0 0 1-.223-.097Z" fill="#EB996E"/><path d="M39.313 64.111a2.31 2.31 0 0 1-.084-.372 2.043 2.043 0 0 1-.09-.372.657.657 0 0 1 .165.348c.046.127.05.267.009.396Z" fill="#EB996E"/><path d="m45.754 64.17-1.627-.617s-4.518-2.11-4.595-1.994c-.076.116-.321.1-.267.651.053.55 2.685 1.663 2.769 1.86.084.197-.056 1.157.917 1.847.973.69 1.674.707 1.674.707" fill="#FFBE9D"/><path d="M44.625 66.607h-.043l-.111-.011a2.7 2.7 0 0 1-.422-.103 4.131 4.131 0 0 1-1.38-.794 1.945 1.945 0 0 1-.559-.95 4.309 4.309 0 0 1-.096-.609.34.34 0 0 0-.017-.068.133.133 0 0 0-.043-.045 1.445 1.445 0 0 0-.132-.086 5.88 5.88 0 0 0-.286-.158c-.391-.21-.81-.42-1.23-.662a7.336 7.336 0 0 1-.627-.396 2.277 2.277 0 0 1-.294-.246.742.742 0 0 1-.124-.156.303.303 0 0 1-.037-.203.712.712 0 0 1 .069-.392.477.477 0 0 1 .143-.143.32.32 0 0 0 .063-.054l.015-.017c.009-.007.02-.01.031-.01a.14.14 0 0 1 .032 0l.05.014c.244.074.469.173.694.266.447.186.872.372 1.278.558.813.372 1.538.703 2.148.99.153.068.296.14.434.2l.398.156.638.253.401.162.103.045c.024 0 .035.015.035.017 0 .001-.013 0-.037-.012l-.106-.035-.408-.15-.643-.23-.402-.15c-.141-.058-.284-.128-.437-.197l-2.154-.973a41.558 41.558 0 0 0-1.28-.558c-.223-.091-.45-.186-.684-.262l-.041-.01h-.015v-.018c.052.033.013.011.024.019a.34.34 0 0 1-.078.07.38.38 0 0 0-.122.121.647.647 0 0 0-.06.352.348.348 0 0 0 .039.167c.031.052.069.1.112.141.088.087.183.166.284.237.201.145.411.271.62.392.418.242.833.454 1.225.664.099.054.186.106.289.164a1.6 1.6 0 0 1 .14.089.185.185 0 0 1 .062.073.37.37 0 0 1 .019.083c.018.203.048.404.091.603.085.354.27.677.532.93.396.35.855.624 1.352.805.136.048.274.086.415.114.048.01.086.015.112.018l.02-.005ZM39.642 66.82a.56.56 0 0 1 .173.05c.153.062.296.145.426.246.09.07.173.151.245.24a.506.506 0 0 1 .133.372.42.42 0 0 1-.302.326.804.804 0 0 1-.472-.015 8.652 8.652 0 0 1-1.5-.601 4.497 4.497 0 0 1-.42-.25.717.717 0 0 1-.143-.107.88.88 0 0 1 .158.082c.1.057.246.137.43.227.48.23.978.422 1.488.576.139.048.29.054.431.017a.354.354 0 0 0 .255-.264.457.457 0 0 0-.111-.331 1.552 1.552 0 0 0-.231-.237 2.585 2.585 0 0 0-.56-.33Z" fill="#EB996E"/><path d="M60.853 66.528c-1.462-4.93-2.75-11.28-4.212-16.212-.536 4.552.134 10.561.97 15.066.1.529.144 1.046.559 1.393l2.683-.247Z" fill="#000" opacity=".3"/><path d="M58.46 63.143c-.02 0-.082-.321-.281-.814a5.78 5.78 0 0 0-.419-.83 6.294 6.294 0 0 0-.688-.904 6.135 6.135 0 0 0-.852-.753 5.534 5.534 0 0 0-.796-.48c-.476-.234-.796-.32-.79-.339.077.01.153.028.227.054.088.023.174.051.258.086a5.203 5.203 0 0 1 1.153.606c.315.224.607.478.873.76.26.286.491.598.692.93.16.27.297.554.407.85.05.124.08.241.112.343.028.087.05.176.067.266.02.074.032.15.037.225Z" fill="#263238"/><path d="M61.246 38.166s-4.674 10.444-4.674 12.367 3.502 15.239 3.502 15.239c-.033.53-.17 3.184-.17 3.184l19.64.07.3-4.223-1.532-4.023 1.53-11.374s1.03-6.603 1.116-8.45c.116-2.31-7.711-4.989-7.497-5.309l-1.35-1.815-7.74 6.285-1.531-4.42-1.834 1.732.24.737Z" fill="#F44A24"/><path d="M74.108 40.944a9081.41 9081.41 0 0 1-6.015 10.146l-6.972 7.95s-.455 4.038.456 5.277c.912 1.238 2.476 2.085 2.476 2.085s1.84 0 4.177-1.955c2.338-1.955 8.787-10.033 8.787-10.033l2.215-2.673s2.641-6.487 2.148-9.789c-.185-1.274-.732-1.802-1.454-2.386-1.817-1.464-4.63-.633-5.818 1.378Z" fill="#F44A24"/><path d="M80.052 49.492a.584.584 0 0 1-.033.075c-.024.052-.06.12-.102.212-.093.186-.235.455-.428.798a45.48 45.48 0 0 1-1.765 2.825c-.393.584-.83 1.218-1.312 1.892-.481.673-1.028 1.367-1.478 2.178-.45.81-.86 1.696-1.352 2.581a16.31 16.31 0 0 1-1.773 2.588 10.37 10.37 0 0 1-2.347 2.075 7.39 7.39 0 0 1-2.72 1.053 6.094 6.094 0 0 1-2.633-.112 4.989 4.989 0 0 1-1.116-.451 5.1 5.1 0 0 1-.92-.622 4.167 4.167 0 0 1-.691-.73c-.18-.241-.334-.5-.458-.774a4.897 4.897 0 0 1-.372-1.384 6.404 6.404 0 0 1-.031-.906c0-.1.01-.186.014-.236a.562.562 0 0 1 0-.08.534.534 0 0 1 0 .08v.236c-.003.3.013.601.049.9.062.472.193.933.387 1.367.125.269.278.523.457.759.2.266.43.506.689.716.28.235.585.44.91.608.347.19.716.339 1.098.441.85.222 1.74.257 2.604.1a7.317 7.317 0 0 0 2.682-1.045c.876-.565 1.66-1.259 2.327-2.059a16.135 16.135 0 0 0 1.762-2.57c.493-.88.89-1.773 1.358-2.58a24.2 24.2 0 0 1 1.487-2.182c.484-.67.93-1.302 1.32-1.882a49.984 49.984 0 0 0 1.789-2.805c.199-.34.346-.606.442-.789l.114-.208a.357.357 0 0 1 .042-.069Z" fill="#263238"/><path d="M60.764 58.688c0 .012-.098.074-.227.217a1.116 1.116 0 0 0-.126 1.37c.099.163.186.243.186.254 0 .011-.117-.052-.24-.216a1.097 1.097 0 0 1 .136-1.456.558.558 0 0 1 .271-.17ZM62.053 60.796a.552.552 0 0 1 .11.026l.13.036.186.033c.387.051.78.014 1.15-.108a4.207 4.207 0 0 0 1.488-.87 11.21 11.21 0 0 0 1.385-1.61 9.732 9.732 0 0 1 1.43-1.597c.254-.212.501-.4.707-.603.197-.18.355-.398.466-.641a1.17 1.17 0 0 0-.106-1.098.863.863 0 0 0-.337-.25.563.563 0 0 1 .108.03c.1.046.188.113.258.198a1.2 1.2 0 0 1 .142 1.146c-.111.254-.272.483-.473.673-.21.209-.46.402-.707.614a9.934 9.934 0 0 0-1.41 1.588 10.991 10.991 0 0 1-1.406 1.619c-.44.392-.957.687-1.518.866-.38.12-.784.147-1.177.08l-.186-.042c-.052-.015-.095-.034-.128-.045a.51.51 0 0 1-.112-.045ZM75.055 39.84c-.024.039-.05.076-.078.111-.062.079-.14.186-.239.311-.212.264-.504.658-.86 1.15a37.629 37.629 0 0 0-2.48 4.03c-.878 1.63-1.603 3.142-2.16 4.22-.275.542-.502.977-.667 1.275l-.18.34a.684.684 0 0 1-.073.115.724.724 0 0 1 .054-.124l.174-.352.638-1.285c.54-1.088 1.258-2.604 2.136-4.237a33.85 33.85 0 0 1 2.51-4.025c.373-.486.665-.876.886-1.133l.253-.3a.592.592 0 0 1 .086-.096Z" fill="#263238"/><path d="M60.541 60.473c.906.491 1.903.44 2.915.242a4.523 4.523 0 0 0 2.604-1.559 4.517 4.517 0 0 1-1.204 2.377c-.643.63-1.577.995-2.462.834-.886-.162-1.782-.995-1.86-1.894M69.115 55.105c.575.886.776 1.964.559 2.998.768-1.176.948-2.664.743-4.053-.204-1.39-.771-2.7-1.4-3.956 0 0-.692 1.172-.7 1.302-.033.677.216 1.949.347 2.613a1.453 1.453 0 0 1 .422 1.313M63.614 65.34c1.849 1.441 4.592 1.508 6.614.325 1.947-1.14 3.147-3.193 4.26-5.155 1.724-3.04 3.825-6.799 5.057-10.069 0 0-3.45 4.708-4.49 6.737a33.481 33.481 0 0 1-2.355 3.958 10.148 10.148 0 0 1-8.906 4.34" fill="#000" opacity=".3"/><path d="M59.905 68.95a.185.185 0 0 1 0-.058v-.17c0-.158.013-.372.024-.645l.106-2.312v.022c-.333-1.116-.723-2.47-1.129-3.932a149.658 149.658 0 0 1-1.292-4.983c-.151-.64-.27-1.16-.345-1.521a81.611 81.611 0 0 1-.083-.415 1.236 1.236 0 0 1-.025-.147.765.765 0 0 1 .043.141l.103.413c.09.372.217.882.372 1.512.321 1.278.785 3.038 1.32 4.974a269.75 269.75 0 0 0 1.116 3.934v.013l-.141 2.314-.045.644c0 .066-.011.122-.015.167a.198.198 0 0 1-.009.048ZM79.55 39.46c0 .015-.2-.056-.522-.136a6.295 6.295 0 0 0-1.282-.186 6.165 6.165 0 0 0-1.29.1c-.328.062-.527.118-.53.103a.477.477 0 0 1 .133-.06c.125-.043.252-.08.381-.11a5.064 5.064 0 0 1 2.604.079c.127.036.251.081.372.134.093.046.134.068.134.076ZM73.332 36.027a.548.548 0 0 1-.05.097l-.158.266c-.14.23-.346.558-.608.965a54.402 54.402 0 0 1-4.148 5.524l-.041.047-.024-.056c-.272-.591-.495-1.082-.657-1.438l-.176-.4a.747.747 0 0 1-.054-.143c.03.042.055.087.076.134.05.1.113.23.195.39.17.352.404.838.685 1.426l-.064-.01a71.76 71.76 0 0 0 1.96-2.459 70.59 70.59 0 0 0 2.19-3.054l.634-.946.173-.257a.415.415 0 0 1 .067-.086ZM77.854 66.02c-.028 0 .058-.968.186-2.157.128-1.188.26-2.148.286-2.144.026.003-.06.967-.186 2.155-.126 1.189-.264 2.149-.286 2.147ZM64.391 65.766c.106.535.18 1.077.222 1.621.075.541.117 1.086.124 1.632a14.331 14.331 0 0 1-.221-1.622 14.108 14.108 0 0 1-.125-1.631Z" fill="#263238"/><path d="M74.326 44.525a.24.24 0 0 0-.255-.18.239.239 0 0 0-.106.037l-.013.011a.225.225 0 1 0 .372.132h.002ZM72.386 39.795a.239.239 0 0 0-.361-.143l-.011.01a.224.224 0 0 0 .074.38.225.225 0 0 0 .298-.247ZM67.935 43.603a.24.24 0 0 0-.255-.18.239.239 0 0 0-.106.037h-.011a.225.225 0 1 0 .372.134v.01ZM63.123 41.69a.235.235 0 0 0-.253-.181.236.236 0 0 0-.106.037l-.013.011a.226.226 0 0 0-.02.315.224.224 0 0 0 .38-.068.224.224 0 0 0 .012-.114ZM62.273 39.807a.239.239 0 0 0-.361-.144l-.013.012a.227.227 0 1 0 .372.132h.002ZM62.643 37.63a.237.237 0 0 0-.361-.142l-.013.009a.224.224 0 0 0 .188.39.225.225 0 0 0 .184-.256h.002ZM59.978 40.627a.238.238 0 0 0-.361-.143l-.013.009a.225.225 0 1 0 .372.134h.002ZM66.158 41.49a.237.237 0 0 0-.359-.143l-.013.011a.224.224 0 0 0 .075.38.225.225 0 0 0 .297-.248ZM60.924 45.37a.239.239 0 0 0-.36-.144h-.014a.225.225 0 1 0 .372.134l.002.01ZM56.14 56.533a.239.239 0 0 0-.36-.143l-.012.01a.225.225 0 1 0 .372.133ZM57.847 50.096a.238.238 0 0 0-.36-.144l-.013.012a.224.224 0 0 0-.02.315.225.225 0 0 0 .392-.183h.002ZM70.436 38.79a.239.239 0 0 0-.36-.142l-.014.009a.227.227 0 0 0-.021.315.224.224 0 0 0 .314.027.225.225 0 0 0 .08-.208h.001ZM76.433 51.607a.238.238 0 0 0-.361-.143l-.013.011a.228.228 0 0 0 .073.386.227.227 0 0 0 .299-.254h.002ZM78.77 40.576a.235.235 0 0 0-.358-.143l-.013.01a.226.226 0 0 0-.022.314.226.226 0 0 0 .382-.066.225.225 0 0 0 .012-.115ZM77.854 47.803a.239.239 0 0 0-.36-.144l-.014.012a.227.227 0 1 0 .372.132h.002ZM72.607 53.017a.238.238 0 0 0-.36-.143l-.014.011a.225.225 0 1 0 .372.133h.002ZM72.828 48.674a.237.237 0 0 0-.36-.143l-.014.01a.228.228 0 0 0-.023.32.227.227 0 0 0 .395-.187h.002ZM75.992 40.615a.235.235 0 0 0-.253-.18.235.235 0 0 0-.106.037l-.013.011a.226.226 0 0 0-.02.315.225.225 0 0 0 .392-.183ZM71.739 36.408a.235.235 0 0 0-.36-.143l-.013.01a.225.225 0 1 0 .373.133ZM71.576 43.19a.237.237 0 0 0-.36-.143l-.011.01a.224.224 0 0 0 .073.38.224.224 0 0 0 .286-.132.226.226 0 0 0 .013-.114ZM66.138 63.885a.236.236 0 0 0-.352-.144l-.013.01a.224.224 0 0 0 .074.38.224.224 0 0 0 .286-.132.226.226 0 0 0 .012-.114h-.007ZM59.898 60.478a.24.24 0 0 0-.255-.18.239.239 0 0 0-.106.037l-.013.011a.225.225 0 1 0 .372.132h.002ZM54.851 62.146a.238.238 0 0 0-.36-.143l-.012.01a.224.224 0 0 0 .074.38.225.225 0 0 0 .298-.247ZM54.312 65.021a.24.24 0 0 0-.255-.18.239.239 0 0 0-.106.037l-.013.01a.224.224 0 0 0 .073.38.225.225 0 0 0 .299-.247h.002ZM59.042 65.982a.238.238 0 0 0-.361-.143l-.011.011a.226.226 0 0 0-.02.315.225.225 0 0 0 .392-.183ZM57.46 59.549a.238.238 0 0 0-.36-.143l-.013.01a.228.228 0 0 0 .073.386.227.227 0 0 0 .299-.253h.002ZM63.264 61.183a.237.237 0 0 0-.36-.144l-.012.01a.224.224 0 0 0 .073.38.225.225 0 0 0 .299-.246ZM77.06 59.538a.235.235 0 0 0-.36-.143l-.012.01a.224.224 0 0 0 .188.39.225.225 0 0 0 .184-.257ZM68.524 67.717a.239.239 0 0 0-.36-.144l-.014.012a.225.225 0 1 0 .372.132h.002ZM72.164 63.162a.236.236 0 0 0-.359-.143l-.013.011a.224.224 0 0 0-.02.315.226.226 0 0 0 .314.026.225.225 0 0 0 .078-.209ZM74.327 66.866a.238.238 0 0 0-.357-.151l-.01.011a.225.225 0 1 0 .371.132l-.004.008ZM68.31 47.474a.238.238 0 0 0-.36-.143l-.014.011a.226.226 0 1 0 .372.133h.002ZM73.208 56.928a.24.24 0 0 0-.255-.18.239.239 0 0 0-.106.036l-.013.01a.225.225 0 1 0 .372.134h.002ZM71.62 60.51a.238.238 0 0 0-.362-.143l-.013.009a.225.225 0 1 0 .372.134h.002ZM76.84 63.385a.237.237 0 0 0-.36-.143l-.014.01a.224.224 0 0 0 .075.38.226.226 0 0 0 .297-.247h.002ZM62.554 67.538a.237.237 0 0 0-.361-.143l-.013.01a.224.224 0 0 0 .188.39.225.225 0 0 0 .184-.257h.002ZM50.65 66.451a.237.237 0 0 0-.361-.143l-.013.011a.228.228 0 0 0 .19.395.227.227 0 0 0 .182-.263h.002ZM61.136 64.494a.238.238 0 0 0-.36-.143l-.014.011a.227.227 0 1 0 .372.132h.002ZM51.092 62.37a.235.235 0 0 0-.36-.143l-.012.01a.226.226 0 0 0-.021.314.224.224 0 0 0 .314.027.225.225 0 0 0 .079-.208ZM67.87 55.615a.239.239 0 0 0-.362-.143l-.013.01a.226.226 0 0 0 .188.39.226.226 0 0 0 .184-.257h.002ZM64.358 45.37a.239.239 0 0 0-.361-.144h-.013a.225.225 0 1 0 .372.134l.002.01ZM63.48 54.252a.237.237 0 0 0-.361-.143l-.011.01a.226.226 0 0 0-.02.316.225.225 0 0 0 .392-.183ZM62.051 51.357a.239.239 0 0 0-.36-.143h-.012a.225.225 0 1 0 .372.134v.01ZM68.37 60.467a.238.238 0 0 0-.361-.143l-.013.01a.226.226 0 0 0-.024.32.228.228 0 0 0 .386-.07.227.227 0 0 0 .01-.117h.002ZM63.915 58.68a.236.236 0 0 0-.36-.149l-.014.011a.224.224 0 0 0 .075.38.226.226 0 0 0 .297-.248l.002.006ZM65.822 48.87a.235.235 0 0 0-.254-.181.235.235 0 0 0-.105.037l-.013.01a.227.227 0 0 0-.022.314.227.227 0 0 0 .314.027.225.225 0 0 0 .08-.208ZM59.042 55.814a.237.237 0 0 0-.361-.143l-.011.011a.226.226 0 0 0-.02.315.226.226 0 0 0 .38-.068.224.224 0 0 0 .012-.115ZM69.506 52.627a.238.238 0 0 0-.36-.143l-.014.009a.226.226 0 0 0-.021.314.226.226 0 0 0 .381-.066.225.225 0 0 0 .012-.114h.002ZM79.214 44.303a.237.237 0 0 0-.361-.144l-.013.012a.224.224 0 0 0 .074.38.225.225 0 0 0 .298-.248h.002ZM75.272 37.998a.236.236 0 0 0-.255-.18.238.238 0 0 0-.106.037l-.013.01a.224.224 0 0 0 .075.38.225.225 0 0 0 .297-.247h.002ZM67.635 38.79a.238.238 0 0 0-.36-.142l-.014.009a.227.227 0 0 0-.021.315.225.225 0 0 0 .393-.181h.002Z" fill="#fff"/><path d="M59.843 16.164c-1.463.93-2.046 2.885-1.77 4.04.141.582.405 1.168.29 1.754-.099.508-.465.915-.744 1.354a4.077 4.077 0 0 0 5.096 5.889" fill="#263238"/><path d="M58.977 23.787c-3.564-7.838 4.914-11.776 9.538-10.47 4.347 1.227 6.201 3.39 6.917 6.298.716 2.907.681 6.06-.46 8.83-.557 1.364-1.573 2.752-3.04 2.923" fill="#263238"/><path d="M63.153 42.929c-.062-3.746-.106-8.89-.106-8.869 0 .02-3.213-.534-3.888-4.73-.331-2.088-.225-5.513-.05-8.312.16-2.52 1.828-5.612 4.34-5.346l7.84 1.981a1.475 1.475 0 0 1 1.32 1.5l-.51 16.213" fill="#FFBE9D"/><path d="M60.511 23.578a.533.533 0 0 0 .51.545.512.512 0 0 0 .558-.477.538.538 0 0 0-.51-.546.513.513 0 0 0-.558.478ZM66.076 23.578a.534.534 0 0 0 .51.543.512.512 0 0 0 .558-.476.533.533 0 0 0-.51-.545.51.51 0 0 0-.558.478ZM59.931 22.602c.065.072.484-.216 1.062-.186.578.03.993.323 1.06.255.032-.03-.033-.159-.214-.3a1.47 1.47 0 0 0-.844-.292 1.424 1.424 0 0 0-.848.244c-.182.126-.248.245-.216.279ZM65.433 22.74c.067.07.474-.235 1.053-.235.578 0 1.006.286 1.067.216.032-.032-.037-.159-.223-.293a1.47 1.47 0 0 0-.856-.26 1.41 1.41 0 0 0-.837.275c-.178.138-.238.264-.204.296ZM63.446 27.202c0-.034-.357-.095-.94-.171-.15-.015-.29-.045-.313-.145a.744.744 0 0 1 .098-.44c.138-.356.285-.732.437-1.127.609-1.603 1.048-2.923.983-2.948-.066-.024-.61 1.258-1.217 2.863l-.42 1.135a.852.852 0 0 0-.076.58.37.37 0 0 0 .243.216.948.948 0 0 0 .251.035c.588.032.953.034.954.002Z" fill="#263238"/><path d="M63.047 34.058a10.69 10.69 0 0 0 5.624-1.5s-1.42 2.92-5.625 2.528v-1.028Z" fill="#EB996E"/><path d="M65.29 21.915c.055.158.636.081 1.315.165.678.084 1.23.266 1.32.125.041-.067-.056-.216-.277-.372a2.31 2.31 0 0 0-2.009-.222c-.249.104-.375.23-.35.303ZM60.065 21.147c.102.132.502 0 .982-.011s.887.09.98-.048c.041-.067-.022-.2-.2-.324a1.357 1.357 0 0 0-.799-.216 1.373 1.373 0 0 0-.783.264c-.169.132-.225.268-.18.335Z" fill="#263238"/><path d="M71.889 24.68c.061-.03 2.248-.997 2.274 1.518.026 2.514-2.505 2.021-2.51 1.949-.006-.073.236-3.467.236-3.467Z" fill="#FFBE9D"/><path d="M72.412 27.182c.01 0 .044.03.119.063a.443.443 0 0 0 .327 0c.264-.1.484-.524.491-.978a1.408 1.408 0 0 0-.128-.625.503.503 0 0 0-.333-.333.222.222 0 0 0-.257.123c-.033.07-.017.12-.03.124-.013.004-.055-.04-.035-.145a.277.277 0 0 1 .097-.158.327.327 0 0 1 .242-.067.615.615 0 0 1 .46.385c.11.217.165.457.16.7-.01.505-.265.983-.628 1.091a.473.473 0 0 1-.402-.061c-.078-.058-.09-.115-.083-.12Z" fill="#EB996E"/><path d="M62.611 14.426c-1.398.723-1.975 3.584-1.397 5.05.579 1.465 2.14 2.18 3.678 2.516 1.538.337 3.046.372 4.564-.044.104 1.019.716 2.066 1.706 2.336 1.311.355 2.632-.845 2.924-2.17.292-1.327-.147-2.692-.579-3.981" fill="#263238"/><path d="M73.706 23.55s-.063.074-.195.186a6.534 6.534 0 0 1-.579.437c-.3.207-.63.367-.978.474-.435.137-.903.13-1.333-.02a2.063 2.063 0 0 1-1.01-.873 2.801 2.801 0 0 1-.363-1.026 3.745 3.745 0 0 1-.04-.73.816.816 0 0 1 .032-.264c.028 0 0 .382.108.975.064.345.19.675.372.975.221.363.553.646.947.807.403.14.84.148 1.248.026a3.76 3.76 0 0 0 .958-.43c.517-.323.818-.558.833-.537Z" fill="#263238"/><path d="M63.617 28.818c.075.218.18.424.313.612a.81.81 0 0 0 .578.336.744.744 0 0 0 .618-.336c.13-.21.19-.457.171-.703-.01-.222-.111-.486-.331-.512a.539.539 0 0 0-.266.06l-1.157.468" fill="#EB996E"/><path d="M64.079 29.766c0-.035.26.067.618-.076a.878.878 0 0 0 .466-.422.93.93 0 0 0 .015-.757.879.879 0 0 0-.1-.173c-.047-.049-.04-.047-.088-.04-.048.008-.124.05-.186.073l-.186.078c-.247.1-.472.186-.66.259-.372.141-.62.216-.63.186-.012-.03.208-.149.572-.324l.644-.3.186-.083c.069-.028.119-.058.212-.087a.271.271 0 0 1 .171 0c.051.021.095.056.129.1a1.059 1.059 0 0 1 .094 1.144.98.98 0 0 1-.587.474.917.917 0 0 1-.5.02c-.12-.02-.174-.059-.17-.072Z" fill="#263238"/><path d="M74.714 22.954c-.257-.019-2.334.251-2.17 4.11.152 3.607 2.681 2.813 3.489 1.455.759-1.285 1.201-5.388-1.319-5.565Z" fill="#455A64"/><path d="M75.992 23.413a.616.616 0 0 1-.01-.1c0-.077 0-.174-.01-.297 0-.266-.019-.638-.032-1.099l-.076-3.785.046.045h-1.07l.05-.049c0 .287.014.59.023.899.036 1.447.07 2.79.097 3.926v.034h-.032c-.439.1-.829.352-1.103.71a2.603 2.603 0 0 0-.44.93 4.103 4.103 0 0 0-.114.66c0 .077-.01.136-.011.175v-.176c.009-.226.04-.45.093-.67.078-.346.225-.673.433-.96.281-.372.683-.636 1.137-.744l-.032.041-.111-3.926c-.01-.307-.017-.61-.025-.899v-.05h1.167v.047l.042 3.787v1.393a.406.406 0 0 1-.022.108Z" fill="#455A64"/><path d="M74.715 18.127s-1.087-2.54-3.674-3.796a15.467 15.467 0 0 0-3.1-1.15s1.51-.357 3.952.73c1.116.494 2.232 1.136 2.976 2.101.469.612 1.056 1.808 1.055 2.115h-1.21Z" fill="#455A64"/><path d="M68.019 48.906s.014-.019.046-.05a6.936 6.936 0 0 0 .642-.74c.248-.333.475-.681.679-1.042.242-.423.494-.921.768-1.477a81.339 81.339 0 0 0 1.841-4.003c.328-.772.662-1.592.997-2.457l.25-.655c.078-.229.178-.45.299-.66.129-.218.315-.396.54-.513a.766.766 0 0 1 .371-.095c.071.005.14.03.198.07a.423.423 0 0 1 .124.168V37.48a.644.644 0 0 1-.1.247.39.39 0 0 1-.233.153.843.843 0 0 1-.519-.095.822.822 0 0 1-.46-.902.723.723 0 0 1 .304-.454.844.844 0 0 1 .528-.15.583.583 0 0 1 .487.269.28.28 0 0 1-.018.303.536.536 0 0 1-.236.171.775.775 0 0 1-.891-.253.653.653 0 0 1-.121-.468.805.805 0 0 1 .186-.44.673.673 0 0 1 .418-.23.536.536 0 0 1 .452.156.334.334 0 0 1 .06.362.312.312 0 0 1-.078.103.52.52 0 0 1-.454.123.57.57 0 0 1-.363-.29 1.195 1.195 0 0 1-.136-.43 1.521 1.521 0 0 1 .099-.867.645.645 0 0 1 .318-.314.582.582 0 0 1 .44.015.419.419 0 0 1 .274.344.383.383 0 0 1-.236.372.47.47 0 0 1-.428 0 .591.591 0 0 1-.266-.327.816.816 0 0 1-.024-.406 1.85 1.85 0 0 1 .086-.387.708.708 0 0 1 .225-.329.9.9 0 0 1 .351-.173.372.372 0 0 1 .205 0 .488.488 0 0 1 .279.271.273.273 0 0 1 0 .207.335.335 0 0 1-.333.186.606.606 0 0 1-.35-.117.987.987 0 0 1-.27-1.267c.05-.1.123-.186.21-.255a.679.679 0 0 1 .296-.128.478.478 0 0 1 .317.045.33.33 0 0 1 .17.262.463.463 0 0 1-.349.446.506.506 0 0 1-.506-.186.81.81 0 0 1-.186-.476c.016-.304.08-.604.186-.889.076-.268.145-.513.209-.733.124-.437.22-.777.29-1.012.031-.113.057-.2.076-.262.018-.061.03-.09.03-.09s0 .033-.02.092c-.021.06-.04.153-.068.266l-.273 1.016-.2.734c-.062.27-.185.558-.172.875a.773.773 0 0 0 .186.442.451.451 0 0 0 .446.168.402.402 0 0 0 .302-.372.267.267 0 0 0-.138-.21.422.422 0 0 0-.272-.036.608.608 0 0 0-.454.35.93.93 0 0 0-.068.614.89.89 0 0 0 .346.537c.089.064.195.1.305.102a.255.255 0 0 0 .256-.135.284.284 0 0 0-.098-.283.372.372 0 0 0-.136-.087.32.32 0 0 0-.162 0 .706.706 0 0 0-.515.451 1.69 1.69 0 0 0-.08.372.723.723 0 0 0 .022.372.49.49 0 0 0 .224.278.39.39 0 0 0 .347 0 .292.292 0 0 0 .186-.278.33.33 0 0 0-.217-.266.506.506 0 0 0-.372-.013.558.558 0 0 0-.27.27c-.107.257-.137.54-.087.813.016.139.058.273.124.396a.48.48 0 0 0 .3.244.424.424 0 0 0 .372-.099.229.229 0 0 0 .062-.255.231.231 0 0 0-.05-.078.445.445 0 0 0-.371-.124.57.57 0 0 0-.357.2.64.64 0 0 0-.067.787.682.682 0 0 0 .777.22.462.462 0 0 0 .186-.14.187.187 0 0 0 .011-.2.49.49 0 0 0-.407-.218.697.697 0 0 0-.731.526.717.717 0 0 0 .39.783.73.73 0 0 0 .456.09.372.372 0 0 0 .26-.326v.028a.28.28 0 0 0-.243-.186.665.665 0 0 0-.33.086c-.209.11-.383.275-.503.48a3.631 3.631 0 0 0-.292.641l-.253.657a85.112 85.112 0 0 1-1.005 2.455 72.344 72.344 0 0 1-1.86 3.999c-.277.558-.534 1.05-.78 1.473-.21.36-.441.706-.695 1.036a4.894 4.894 0 0 1-.706.774Z" fill="#fff"/><path d="M76.963 21.146a2.442 2.442 0 0 0-.17-.689 2.71 2.71 0 0 0-1.335-1.337 3.607 3.607 0 0 0-1.287-.314 6.052 6.052 0 0 0-1.527.115c-1.066.197-2.185.657-3.44.846-.61.081-1.23.081-1.84 0a7.306 7.306 0 0 1-4.073-2.042 6.512 6.512 0 0 1-1.169-1.562 2.212 2.212 0 0 1-.138-.274l-.089-.206-.054-.127a.157.157 0 0 1-.015-.044c.01.012.018.026.024.04l.062.123.098.201c.043.093.091.183.146.27.319.564.717 1.08 1.183 1.53a7.253 7.253 0 0 0 4.03 1.997c.603.08 1.213.08 1.816 0 1.236-.186 2.358-.644 3.437-.837a6.092 6.092 0 0 1 1.547-.108c.454.027.9.14 1.312.333a2.714 2.714 0 0 1 1.34 1.383c.066.166.11.34.129.518v.137c.007.015.011.03.013.047Z" fill="#455A64"/><path d="M74.156 17.139a.893.893 0 0 1-.133.022c-.088.013-.218.032-.384.061-.33.054-.805.16-1.389.305-.683.184-1.379.32-2.081.404a10.46 10.46 0 0 1-2.593-.058 10.976 10.976 0 0 1-4.393-1.65c-.25-.169-.473-.325-.663-.474a7.287 7.287 0 0 1-.472-.392l-.283-.266a.51.51 0 0 1-.093-.099.73.73 0 0 1 .106.084l.294.251c.127.112.296.23.482.372.186.141.416.296.666.46a11.22 11.22 0 0 0 4.363 1.612c.852.125 1.716.146 2.573.063.698-.076 1.39-.2 2.072-.372a16.415 16.415 0 0 1 1.4-.277 5.87 5.87 0 0 1 .387-.04.69.69 0 0 1 .141-.006Z" fill="#455A64"/><path d="M74.432 29.597a.353.353 0 0 1-.073-.022 1.182 1.182 0 0 1-.186-.098 1.708 1.708 0 0 1-.545-.58 2.803 2.803 0 0 1-.335-1.133 8.8 8.8 0 0 1 .238-2.866c.085-.386.224-.758.415-1.104.137-.234.329-.433.558-.578a1.01 1.01 0 0 1 .186-.097c.047-.017.073-.024.073-.02 0 .003-.095.042-.246.148-.21.154-.384.352-.51.58-.178.345-.309.712-.386 1.092a9.3 9.3 0 0 0-.231 1.41 8.69 8.69 0 0 0 0 1.425c.024.39.127.77.305 1.116.123.23.296.43.506.584.141.099.236.134.23.143Z" fill="#263238"/><path d="m66.066 29.023-1.91.375a.53.53 0 0 0-.417.622l.014.071a.53.53 0 0 0 .622.418l1.909-.374a.53.53 0 0 0 .418-.622l-.014-.072a.53.53 0 0 0-.622-.418Z" fill="#455A64"/><path d="m66.432 29.306 8.825-2.768a.417.417 0 1 1 .233.8l-9.025 2.437-.033-.469Z" fill="#455A64"/><path d="M72.955 28.09c.094-.041.192-.075.292-.102l.807-.245c.338-.104.755-.216 1.194-.36a.8.8 0 0 0 .288-.185.435.435 0 0 0 .125-.307.267.267 0 0 0-.186-.253.674.674 0 0 0-.372.011l-2.647.852-.805.25a1.849 1.849 0 0 1-.285.09c.093-.045.19-.083.289-.113l.796-.28c.675-.228 1.601-.546 2.643-.879a.763.763 0 0 1 .424 0 .373.373 0 0 1 .245.342c0 .14-.054.273-.152.372a.894.894 0 0 1-.339.186c-.455.144-.863.244-1.207.34l-.807.218c-.099.03-.2.052-.303.064ZM58.532 21.332c.302 1.06-.775 1.97-1.155 3.006-.372 1-.056 2.122.396 3.09.452.966 1.047 1.882 1.278 2.921.571 2.567-1.75 5.333-1.302 7.924.16.945.541 1.93.87 2.829a3.74 3.74 0 0 1 0 2.628c-.502 1.488-1.353 2.186-1.952 3.633-.307.744-.283 1.57-.268 2.37.015.8.011 1.636-.346 2.354-.357.718-1.172 1.272-1.946 1.064a2.852 2.852 0 0 0 3.408.65c1.017-.544 1.586-1.645 2.074-2.69 2.358-5.061 3.606-5.49 3.534-11.073 0-.359-.071-5.952-.071-5.952a5.586 5.586 0 0 1-1.393-.586c-2.634-1.819-2.73-5.059-2.71-7.572" fill="#263238"/><path d="M63.796 38.273v2.108s-1.62 8.267-2.108 12.86c-.487 4.592-.567 5.805-.567 5.805s1.163 1.813 3.594-1.267c2.43-3.08 2.864-3.565 3.837-3.62 0 0-1.189-12.913-1.135-13.391.06-.34.21-.656.432-.92l-4.053-1.575ZM66.984 33.517s-2.647 3.512-2.862 3.996c-.216.483-.326.755-.326.755l4.053 1.568 3.945-4.323 1.458-3.837-.433-4.538s-.863-.054-1.025.703c-.1.479-.136.97-.11 1.458l-1.209-.973-1.95-.593s-.46.755.297 1.134c.757.38.972.372.972.372l.681 1.189-.297 1.332-1.38-1.302a.787.787 0 0 0-1.005-.064l-.893.648-.835-.372-1.62 1.449-.649.593s.433.81 1.302.433l.865-.372 1.021.744Z" fill="#FFBE9D"/><path d="M63.796 38.983a3.135 3.135 0 0 1 .026-.443c.022-.178.056-.355.102-.53.058-.24.154-.47.283-.68.607-.93 1.56-2.232 2.751-3.834v.048l-1.027-.755h.036l-.534.237c-.184.089-.374.163-.57.22a.93.93 0 0 1-.632-.072c-.199-.102-.364-.26-.476-.453l-.015-.026.024-.023c.696-.654 1.472-1.315 2.268-2.022l.024-.02.026.015.72.426h-.047l.841-.558c.147-.095.279-.186.437-.283a.524.524 0 0 1 .543.046l1.639 1.386-.076.026c.089-.4.186-.833.282-1.27v.033l-.68-1.188.042.024a1.355 1.355 0 0 1-.336-.091 5.672 5.672 0 0 1-.318-.13c-.106-.047-.21-.099-.315-.15-.054-.025-.106-.06-.158-.09a.977.977 0 0 1-.141-.123.683.683 0 0 1-.186-.497c.006-.177.055-.351.143-.506l.019-.031.037.01 1.95.596h.009l1.209.973-.077.04a5.774 5.774 0 0 1 .103-1.437.876.876 0 0 1 .394-.599c.208-.123.447-.183.688-.173h.05v.041l.428 4.538v.01c-.54 1.413-1.03 2.697-1.466 3.833l-3.054 3.37-.83.899c-.094.098-.167.177-.217.23l-.076.077s.022-.03.069-.084l.21-.236.818-.91 3.04-3.348v.01l1.45-3.84v.02c-.135-1.405-.28-2.925-.437-4.54l.043.044a1.146 1.146 0 0 0-.632.16.777.777 0 0 0-.352.539 5.582 5.582 0 0 0-.1 1.412v.108l-.084-.067-1.228-.979h.017l-1.95-.593.055-.022c-.079.14-.123.297-.129.457a.589.589 0 0 0 .16.43c.039.04.08.075.125.108.05.028.095.057.147.083.104.05.206.103.31.147.196.096.403.168.616.214h.03l.011.019.68 1.188.01.017v.019c-.099.437-.186.87-.284 1.27l-.017.078-.062-.052-1.633-1.382a.429.429 0 0 0-.446-.04c-.138.081-.286.185-.428.276l-.843.558-.022.015-.024-.013-.72-.428h.052c-.796.704-1.573 1.364-2.27 2.015l.009-.048c.102.179.255.325.439.42.179.091.385.115.58.067.191-.056.378-.128.558-.214l.534-.234h.02l.017.01 1.025.76.028.02-.02.028c-1.197 1.601-2.16 2.892-2.774 3.813-.13.207-.227.432-.288.668a4.304 4.304 0 0 0-.153.963Z" fill="#EB996E"/><path d="M68.81 34.332c-.018 0 .053-.286.082-.744a1.708 1.708 0 0 0-.126-.78 2.088 2.088 0 0 0-.645-.726c-.481-.369-.982-.71-1.501-1.021l-.475-.28a.917.917 0 0 1-.17-.11.67.67 0 0 1 .185.077c.12.054.288.14.493.253.532.297 1.042.633 1.525 1.004.282.197.51.46.666.765.107.26.147.543.115.822a3.49 3.49 0 0 1-.09.547.723.723 0 0 1-.058.193ZM71.647 32.645c.012-.164.035-.327.069-.488.058-.388.086-.78.084-1.172a7.773 7.773 0 0 0-.105-1.173 3.78 3.78 0 0 1-.076-.484c.069.15.117.308.144.47.171.781.178 1.589.02 2.372-.024.164-.07.323-.136.474Z" fill="#EB996E"/><path d="m53.584 18.865-1.934-3.417a9.153 9.153 0 1 0-2.193 2.44l4.127.977Z" fill="#fff"/><path d="m53.584 18.863-4.14-.948h-.035l.022-.03.034.034a9.138 9.138 0 0 1-4.386 1.847 8.2 8.2 0 0 1-1.447.072c-.248-.013-.503-.02-.758-.04l-.771-.118A9.21 9.21 0 0 1 36.398 16a9.093 9.093 0 0 1-1.544-3.533 9.3 9.3 0 0 1 .108-4.064 9.006 9.006 0 0 1 1.959-3.757l.372-.411c.122-.138.27-.252.401-.372.132-.131.27-.256.415-.372l.44-.328c.144-.107.295-.204.453-.29l.463-.28.486-.233c.157-.084.321-.157.489-.218a9.346 9.346 0 0 1 4.092-.63 9.03 9.03 0 0 1 3.757 1.115 9.26 9.26 0 0 1 4.337 5.337c.285.966.419 1.97.399 2.976a9.037 9.037 0 0 1-.447 2.565 9.218 9.218 0 0 1-.917 1.968v-.025l1.918 3.428-1.959-3.405v-.023a9.278 9.278 0 0 0 .902-1.96 9.098 9.098 0 0 0 .434-2.55 9.807 9.807 0 0 0-.404-2.948 9.192 9.192 0 0 0-4.308-5.28 8.955 8.955 0 0 0-3.72-1.096 9.24 9.24 0 0 0-4.053.627c-.166.06-.327.132-.483.215l-.48.233-.46.279a3.412 3.412 0 0 0-.448.297l-.435.324c-.147.104-.272.24-.41.357a4.421 4.421 0 0 0-.397.372l-.372.406a8.929 8.929 0 0 0-1.938 3.72 9.234 9.234 0 0 0-.11 4.023 9.022 9.022 0 0 0 1.525 3.495 9.166 9.166 0 0 0 5.65 3.643l.765.118c.253.022.506.028.744.043.48.019.96-.003 1.436-.067a9.09 9.09 0 0 0 4.366-1.82l.145-.111-.112.147-.015-.04 4.142.988Z" fill="#263238"/><path d="M41.88 10.662a.744.744 0 1 1-1.49 0 .744.744 0 0 1 1.49 0ZM44.848 10.662a.743.743 0 1 1-1.487 0 .743.743 0 0 1 1.487 0ZM47.81 10.288a.744.744 0 1 1-1.286.748.744.744 0 0 1 1.287-.748ZM90.152 68.974c0 .028-18.909.048-42.222.048-23.313 0-42.222-.02-42.222-.048s18.903-.048 42.231-.048c23.328 0 42.213.022 42.213.048Z" fill="#263238"/><path d="M66.26 69.02a4.992 4.992 0 0 1 3.979-2.248c2.717-.093 4.075 2.247 4.075 2.247H66.26Z" fill="#455A64"/><path d="M71.468 68.948a3.01 3.01 0 0 1-.08-.406 2.62 2.62 0 0 0-1.077-1.584 3.452 3.452 0 0 1-.347-.224c.14.022.274.074.392.153a2.306 2.306 0 0 1 1.116 1.64.98.98 0 0 1-.004.42Z" fill="#263238"/><path d="M64.579 68.918V68.9a1.041 1.041 0 0 0-1.044-1.025H40.408a1.043 1.043 0 0 0-1.043 1.043h25.214Z" fill="#455A64"/><path d="M20.303 28.398c0 .487.372 29.533.372 29.533l21.576 5.191h1.773l-1.135-40.548h-1.622l-20.964 5.824Z" fill="#263238"/><path d="m24.866 56.723-6.687 12.253h6.112c-1.093-.108 9.672 0 9.672 0l-9.672-2.565 3.026-6.872-.258-2.816h-2.193Z" fill="#263238"/><path d="m25.015 58.985-.724-22.84 6.57-.63.809 24.387-2.346.12-4.31-1.037Z" fill="#263238"/><path d="M32.588 60.805v-1.631c0-1.062-.009-2.604-.014-4.544 0-3.882-.01-9.345-.017-15.68l.046.047h-7.765l.048-.049v1.053c0 6.179 0 11.928-.01 16.72v.009c-2.012 3.688-3.68 6.75-4.848 8.889l-1.358 2.477c-.156.283-.277.499-.359.65-.082.15-.128.219-.128.219s.039-.078.117-.225l.348-.657 1.339-2.486 4.817-8.906v.02-17.82h7.846v.046c0 6.335-.013 11.798-.017 15.68 0 1.938-.011 3.482-.015 4.544V60.686c0 .073-.03.12-.03.12Z" fill="#455A64"/><path d="M27.317 59.54c.025.008-.905 2.16-2.077 4.802-1.172 2.64-2.143 4.776-2.167 4.765-.024-.011.906-2.161 2.078-4.804 1.171-2.643 2.142-4.775 2.166-4.764ZM42.242 63.131v-.411c0-.273-.01-.67-.015-1.18 0-1.022-.031-2.503-.067-4.333-.069-3.66-.234-8.714-.437-14.296-.203-5.582-.357-10.641-.41-14.301-.027-1.83-.04-3.313-.034-4.336v-1.59.411c0 .273 0 .67.014 1.179 0 1.023.03 2.503.067 4.334.08 3.66.246 8.72.449 14.3s.357 10.637.409 14.297c.028 1.83.039 3.313.035 4.336v1.486a.35.35 0 0 1-.01.104ZM31.411 38.781c.028 0 .049 4.859.049 10.85 0 5.99-.02 10.849-.049 10.849-.027 0-.048-4.856-.048-10.85 0-5.992.022-10.849.048-10.849ZM19.788 67.067a.813.813 0 0 1-.093-.13l-.108-.16a5.724 5.724 0 0 1-.723-1.799 7.785 7.785 0 0 1-.116-2.486 9.953 9.953 0 0 1 .808-2.941 6.11 6.11 0 0 1 .842-1.341c.077-.102.16-.198.248-.29.085-.093.167-.186.253-.276.186-.169.348-.342.532-.489.339-.288.7-.55 1.08-.783.186-.1.355-.206.53-.29.175-.084.34-.173.508-.233a5.818 5.818 0 0 1 1.622-.431c.151-.02.303-.03.456-.028a.949.949 0 0 1 .16 0 1.252 1.252 0 0 1-.158.017 6.094 6.094 0 0 0-2.053.504c-.166.061-.326.154-.501.234-.175.08-.342.186-.523.294-.374.233-.73.495-1.064.783-.186.145-.348.318-.524.486-.084.087-.166.186-.25.271a3.578 3.578 0 0 0-.241.288 6.046 6.046 0 0 0-.83 1.323 9.972 9.972 0 0 0-.805 2.909 7.853 7.853 0 0 0 .093 2.463c.112.546.3 1.073.558 1.568.037.08.079.156.126.23l.099.166c.028.045.053.092.074.141Z" fill="#455A64"/></g><defs><clipPath id="a"><path fill="#fff" transform="translate(.5)" d="M0 0h93v69H0z"/></clipPath></defs></svg>